.
 
http://www.scenetime.com    -   SceneTime [ We been having it ] !!!


How come you press harder on a remote control when you know the battery is dead? so you better seed to get speed ;)

        Seed back for speed


...................................NFO:................................................. [color=red]ANOTHER RELEASE BY P2P[/color] 

U _____ u  __  __    ____              ____   U _____ u 
 --- \| ___"|/U|' \/ '|uU|  _"\ u  ___   U |  _"\ u\| ___"|/ 
     |  _|"  \| |\/| |/\| |_) |/ |_"_|   \| |_) |/ |  _|"   
   | |___   | |  | |  |  __/    | |     |  _ <   | |___   
      |_____|  |_|  |_|  |_|     U/| |\u   |_| \_\  |_____|  
      <<   >> <<,-,,-.   ||>>_. ,_|___|_,-.//   \\_ <<   >>  
     (__) (__) (./  \.) (__)__)\_)-' '-(_/(__)  (__)__) (__) 
       
  *         #
  * ,         ,,*
                   ,
     ,                 ,
     # ,                   
     :,                     
                              ,
  +                        
  #                         # 
   ,                          ,* 
    , ,.                      ,  ,.
   , ,,                     ,   , 
  +     #                    + , * ,
              ,                 .       
     ,* ,,:,                     ,  , #
   *      +      ,       ,  ,    *,   
   ,,, . .      , ,, *,*  ,.
  .,   ##,     ,+ ,,  
   ,  ,#: ,   #,,   ,.
       +    +*,     #*,#,    
       ,  #+  ,,,,.     +
     ,   ,+ #  +   .,    ,
     ,     #   **    ,  ,+. .,,   ,
     ,  : , ,,             , :,    :
        ,        +      , ,,.     ,
  *    , *        #         .      
  .      #     +     ,:#,,,,   
       ,     ,    ,,,     .#,    , #
  ,     ,*     ,     ., ,    #
 /        .            ,,,   *
   //  ,,  ,  ,: ,  ,    ,  ,  , *
  / ,  . ,  #    ,, *##+   ,,  #
  ,,,+,   #:#, ,   ,  ,,  
       +  ,   ,, #   :   ,    
  #    ,   #:  ,     
        ,, ,:    :   .
  ,        .  ,   ,  
     *        ,#    :.   
        ,  ,, :, ,      :
     + , *. , ,*,  ,, ,   
       ,,    ,    +,   :+   +
      ,     , .,     
   ,  ,:*    ,:*,  
           :+    ,   
     ,:#  ,,     :+   ,, . ,+
   + .      , #    :*   ,    , 
       ,:    ,#  , .     , :
       #,.  :  + ,  ,#  ,,  +   * + 
   ,  ,+ + *.,  ,:     ,   ,.#,#  
  ..  # .,   , # . , , :,    
   ,  ,    :.     
                 #
     ,             
     :,    ,* .
        , ,.,:  #
  +   .,      
   #* ,  *#
   *.,#  ,,
    :#,  .  :, .
   #  ,  *.   ,,
       
  
   
     
     
    
  
  
   
   
  
  

 [img]http://t3.gstatic.com/images?q=tbn:ANd9GcR-ZA7RrlLferhoo26HlHHvGWIcPRyKtHm4Eq-56AAsqyQX_Ag-hw [/img]
 [color=green]Release Title[/color] 
 [b]The Killing Room 2009 720p ~p2p~ [/b]
 [color=green]Release Date[/color]  
 [b]6.28.2011[/b]
 [color=green]Language[/color] 
  [b]english[/b]
 [color=green]Video ~n~ audio[/color] 
 [b]
Video
ID                               : 1
Format                           : AVC
Format/Info                      : Advanced Video Codec
Format profile                   : Main@L3.1
Format settings, CABAC           : Yes
Format settings, ReFrames        : 4 frames
Codec ID                         : avc1
Codec ID/Info                    : Advanced Video Coding
Duration                         : 1h 33mn
Bit rate mode                    : Variable
Bit rate                         : 1 316 Kbps
Width                            : 1 280 pixels
Height                           : 544 pixels
Display aspect ratio             : 2.35:1
Frame rate mode                  : Variable
Frame rate                       : 23.976 fps
Minimum frame rate               : 23.810 fps
Maximum frame rate               : 24.390 fps
Color space                      : YUV
Chroma subsampling               : 4:2:0
Bit depth                        : 8 bits
Scan type                        : Progressive
Bits/(Pixel*Frame)               : 0.079
Stream size                      : 878 MiB (89%)
Writing library                  : x264 core 112/ aq=1:1.00
Encoded date                     : UTC 2011-06-21 12:06:39
Tagged date                      : UTC 2011-06-21 15:48:41
Color primaries                  : BT.709-5, BT.1361, IEC 61966-2-4, SMPTE RP177
Transfer characteristics         : BT.709-5, BT.1361
Matrix coefficients              : BT.709-5, BT.1361, IEC 61966-2-4 709, SMPTE RP177

Audio
ID                               : 2
Format                           : AAC
Format/Info                      : Advanced Audio Codec
Format profile                   : LC
Codec ID                         : 40
Duration                         : 1h 33mn
Bit rate mode                    : Variable
Bit rate                         : 160 Kbps
Maximum bit rate                 : 214 Kbps
Channel(s)                       : 2 channels
Channel positions                : Front: L R
Sampling rate                    : 48.0 KHz
Compression mode                 : Lossy
Stream size                      : 107 MiB (11%)
Language                         : English
Encoded date                     : UTC 2011-06-21 12:06:39
Tagged date                      : UTC 2011-06-21 15:48:41

Text
ID                               : 3
Format                           : Apple text
Codec ID                         : text
Duration                         : 1h 33mn
Bit rate mode                    : Variable
Bit rate                         : 1 bps
Stream size                      : 375 Bytes (0%)
Encoded date                     : UTC 2011-06-21 12:06:39
Tagged date                      : UTC 2011-06-21 15:48:41
[/b]
 [color=green]imdb info[/color] 
 [b] http://www.imdb.com/title/tt1119191/[/b]
 [color=green]Our Screen Shots[/color]
 [img]http://leetleech.org/images/34614066299426526478.png[/img][img]http://leetleech.org/images/80859762611891500504.png[/img][img]http://leetleech.org/images/75628776347257189855.png[/img]
 [color=red]
 ALWAYS LOOKiNG 4 SCREENERS+CAM+SiLVERS+LiNE+PRERETAiL BD/DVD. ANY REGiON
 If you'd like to help, feel free to contact us at: proud2pirate@hush.ai~
[/color]
 [color=yellow]Greetz[/color]:[color=red]To all those that make it posible for us to bring topnotch releases.... First off - Kingben glad your ok and back at the encoding- BLaZe-IMAGiNE-WiKi-ELEKTRI4KA-LSD-FLAWL3SS-Lynks-BDK our good buds over at SiC....Secong bless those that have fallon behind or just left this... Scene groups p2p groups and who every else we left out  ....THANKS[/color]

Those that missed us we are back in the hot ripping sit. If you would like KVCD rips come find
              Us on proud2pirate and hit us up. I think we can rip some for you lol We are still standing strong 
  A few bumps and hoops to go threw but we are still here
We will bring the best 720p rips to our fans Hope you all enjoy
arounds since 2005-NOW